/* XPM */
static char * wifi_5_xpm[] = {
"16 16 3 1",
" 	c None",
".	c #999999",
"+	c #000000",
"                ",
"                ",
"            ..  ",
"            ..  ",
"         .. ..  ",
"         .. ..  ",
"      ++ .. ..  ",
"      ++ .. ..  ",
"   ++ ++ .. ..  ",
"   ++ ++ .. ..  ",
"++ ++ ++ .. ..  ",
"++ ++ ++ .. ..  ",
"                ",
"                ",
"                ",
"                "};
